<?xml version="1.0" encoding="UTF-8"?>
<!DOCTYPE svg PUBLIC "-//W3C//DTD SVG 1.1//EN" "http://www.w3.org/Graphics/SVG/1.1/DTD/svg11.dtd">
<svg xmlns="http://www.w3.org/2000/svg" version="1.1" width="479px" height="486px" style="shape-rendering:geometricPrecision; text-rendering:geometricPrecision; image-rendering:optimizeQuality; fill-rule:evenodd; clip-rule:evenodd" xmlns:xlink="http://www.w3.org/1999/xlink">
<g><path style="opacity:1" fill="#000000" d="M 259.5,-0.5 C 260.167,-0.5 260.833,-0.5 261.5,-0.5C 261.5,0.833333 261.5,2.16667 261.5,3.5C 260.167,2.16667 258.833,2.16667 257.5,3.5C 257.527,1.80072 258.194,0.46739 259.5,-0.5 Z"/></g>
<g><path style="opacity:1" fill="#f0f0f0" d="M 261.5,3.5 C 261.712,5.38411 262.712,6.71745 264.5,7.5C 263.975,8.19238 263.308,8.69238 262.5,9C 264.833,10 266.5,11.6667 267.5,14C 267.393,18.398 267.393,22.7314 267.5,27C 270.348,31.6998 272.682,36.6998 274.5,42C 274.287,47.8727 275.621,53.8727 278.5,60C 278.043,60.414 277.709,60.914 277.5,61.5C 278.41,64.6037 279.077,67.437 279.5,70C 278.833,70.3333 278.167,70.6667 277.5,71C 279.303,72.262 280.636,73.9287 281.5,76C 280.833,76.3333 280.167,76.6667 279.5,77C 281.237,78.5675 282.237,80.5675 282.5,83C 282.43,83.7648 282.097,84.2648 281.5,84.5C 282.84,93.3844 284.506,102.551 286.5,112C 285.651,118.253 284.318,124.42 282.5,130.5C 282.68,131.554 283.013,132.554 283.5,133.5C 281.219,137.255 279.219,141.088 277.5,145C 278.252,145.671 278.586,146.504 278.5,147.5C 278.5,147.833 278.5,148.167 278.5,148.5C 277.662,148.842 277.328,149.508 277.5,150.5C 276.046,156.369 275.379,162.369 275.5,168.5C 275.178,170.475 275.178,172.142 275.5,173.5C 275.5,175.833 275.5,178.167 275.5,180.5C 274.494,180.938 274.494,181.604 275.5,182.5C 275.785,185.829 275.118,188.829 273.5,191.5C 272.776,193.218 272.109,195.052 271.5,197C 272.333,199.081 272.333,201.248 271.5,203.5C 271.5,203.833 271.5,204.167 271.5,204.5C 270.575,208.139 268.575,211.639 265.5,215C 271.079,219.987 275.079,218.821 277.5,211.5C 278.688,212.048 279.855,212.381 281,212.5C 281.464,211.906 281.631,211.239 281.5,210.5C 283.749,209.92 285.415,208.587 286.5,206.5C 288.38,206.771 289.713,206.104 290.5,204.5C 292.88,204.746 294.88,203.579 296.5,201C 300.988,199.525 304.321,196.691 306.5,192.5C 310.2,189.788 313.867,187.121 317.5,184.5C 320.024,183.073 322.69,181.906 325.5,181C 328.168,177.67 331.502,175.337 335.5,174C 337.38,170.169 340.213,168.336 344,168.5C 344.464,167.906 344.631,167.239 344.5,166.5C 344.5,165.833 344.833,165.5 345.5,165.5C 346.925,167.031 347.591,166.698 347.5,164.5C 349.405,164.593 351.238,164.926 353,165.5C 356.775,162.026 360.775,162.026 365,165.5C 366.333,165.5 367.667,165.5 369,165.5C 370.755,162.662 373.088,161.995 376,163.5C 379.011,161.418 382.011,159.418 385,157.5C 386,157.833 387,158.167 388,158.5C 391.946,154.555 396.446,151.389 401.5,149C 402.362,146.266 403.195,146.099 404,148.5C 404.36,146.579 405.194,144.912 406.5,143.5C 408.912,142.423 411.246,141.256 413.5,140C 415.112,139.28 416.612,139.446 418,140.5C 419.891,138.347 422.057,137.68 424.5,138.5C 425.197,136.615 426.197,136.282 427.5,137.5C 431.163,136.947 434.496,135.613 437.5,133.5C 438.107,133.624 438.44,133.957 438.5,134.5C 438.5,135.167 438.5,135.833 438.5,136.5C 438.423,137.75 437.756,138.583 436.5,139C 436.833,139.333 437.167,139.667 437.5,140C 435.333,140.833 433.833,142.333 433,144.5C 432.667,144.167 432.333,143.833 432,143.5C 430.24,148.476 426.74,152.476 421.5,155.5C 420.139,157.028 418.972,158.695 418,160.5C 416.933,159.809 415.766,159.309 414.5,159C 414.833,158.667 415.167,158.333 415.5,158C 414.5,157.333 413.5,157.333 412.5,158C 412.966,159.299 412.966,160.799 412.5,162.5C 410.058,162.354 409.391,163.187 410.5,165C 409.956,165.717 409.289,166.217 408.5,166.5C 405.813,172.355 401.813,177.189 396.5,181C 396.833,181.333 397.167,181.667 397.5,182C 395.725,183.439 393.725,184.439 391.5,185C 391.833,185.333 392.167,185.667 392.5,186C 383.41,196.742 372.91,206.242 361,214.5C 360.667,213.833 360.333,213.167 360,212.5C 358.468,215.524 356.301,218.024 353.5,220C 351.893,220.115 350.393,219.615 349,218.5C 348.055,218.905 347.388,219.572 347,220.5C 344.714,221.253 342.214,221.253 339.5,220.5C 337.758,222.973 335.925,222.973 334,220.5C 332.455,220.366 330.788,220.7 329,221.5C 327.527,221.097 326.194,220.43 325,219.5C 322.8,221.831 320.8,221.831 319,219.5C 318.333,222.167 317.667,222.167 317,219.5C 316.082,221.632 314.749,222.299 313,221.5C 309.535,223.826 306.369,225.826 303.5,227.5C 301.199,228.06 298.866,228.56 296.5,229C 295.944,229.383 295.611,229.883 295.5,230.5C 292.541,230.35 290.041,231.35 288,233.5C 287,233.167 286,232.833 285,232.5C 283.796,233.859 282.296,234.859 280.5,235.5C 281.262,235.911 282.262,236.077 283.5,236C 282.446,237.388 282.28,238.888 283,240.5C 284.353,239.315 285.52,237.981 286.5,236.5C 288.65,238.149 290.65,239.982 292.5,242C 291.833,242.333 291.167,242.667 290.5,243C 292.03,245.352 293.697,247.519 295.5,249.5C 295.62,248.414 296.287,247.747 297.5,247.5C 300.083,247.981 302.583,248.648 305,249.5C 305.399,249.272 305.565,248.938 305.5,248.5C 305.833,248.5 306.167,248.5 306.5,248.5C 307.907,248.659 309.574,249.325 311.5,250.5C 312.739,250.058 313.739,249.391 314.5,248.5C 315.5,249.833 316.5,249.833 317.5,248.5C 317.962,249.88 318.962,250.547 320.5,250.5C 322.129,249.577 323.629,249.243 325,249.5C 328.42,252.117 331.42,252.117 334,249.5C 335,250.167 336,250.833 337,251.5C 340.437,250.743 343.771,250.41 347,250.5C 348.667,251.167 350.333,251.833 352,252.5C 357.206,251.217 363.206,250.217 370,249.5C 372.805,249.776 375.805,250.443 379,251.5C 381.242,251.391 383.409,251.058 385.5,250.5C 386.478,250.977 387.311,251.643 388,252.5C 388.671,251.748 389.504,251.414 390.5,251.5C 391.172,252.267 392.005,252.934 393,253.5C 396.58,253.366 400.08,253.033 403.5,252.5C 404.517,255.028 405.684,255.028 407,252.5C 416.996,256.435 426.496,260.601 435.5,265C 442.249,266.361 448.749,268.527 455,271.5C 455.333,271.167 455.667,270.833 456,270.5C 458.183,272.447 460.516,274.114 463,275.5C 464.507,274.465 466.007,274.632 467.5,276C 466.837,277.518 465.837,278.685 464.5,279.5C 464.167,279.5 463.833,279.5 463.5,279.5C 461.833,278.167 460.167,278.167 458.5,279.5C 458.217,278.711 457.717,278.044 457,277.5C 455.698,278.085 454.531,278.751 453.5,279.5C 447.571,280.239 441.904,280.239 436.5,279.5C 435.5,279.5 434.5,279.5 433.5,279.5C 430.766,276.053 427.766,275.719 424.5,278.5C 423.833,278.5 423.167,278.5 422.5,278.5C 418.518,279.492 414.518,280.492 410.5,281.5C 409.558,281.392 408.725,281.059 408,280.5C 406.758,281.872 405.258,282.872 403.5,283.5C 398.314,283.69 393.147,283.023 388,281.5C 387.085,282.328 386.419,283.328 386,284.5C 385.667,284.167 385.333,283.833 385,283.5C 381.248,286.091 377.081,287.758 372.5,288.5C 369.081,287.254 365.581,286.254 362,285.5C 360.093,285.421 358.093,285.754 356,286.5C 353.91,285.206 351.91,284.206 350,283.5C 347.264,286.071 344.264,286.738 341,285.5C 334.965,286.575 328.965,287.575 323,288.5C 320.845,287.317 318.845,287.65 317,289.5C 313.333,288.833 309.667,288.167 306,287.5C 302.246,288.145 298.413,288.478 294.5,288.5C 292.885,287.846 291.218,287.346 289.5,287C 285.833,282.76 281.167,280.26 275.5,279.5C 273.945,279.722 272.611,280.389 271.5,281.5C 270.212,279.525 268.545,279.525 266.5,281.5C 265.676,279.252 264.676,279.086 263.5,281C 266.668,282.797 270.001,284.297 273.5,285.5C 274.345,287.762 275.678,288.429 277.5,287.5C 280.742,289.371 283.908,291.371 287,293.5C 288.016,292.366 288.683,292.699 289,294.5C 289.333,294.167 289.667,293.833 290,293.5C 295.762,297.015 302.262,299.848 309.5,302C 312.102,302.883 314.269,304.383 316,306.5C 316.333,305.833 316.667,305.167 317,304.5C 329.522,312.668 342.355,319.501 355.5,325C 355.366,327.039 355.866,329.206 357,331.5C 357.875,327.393 359.709,326.727 362.5,329.5C 371.897,338.622 378.23,350.122 381.5,364C 380.883,366.758 380.716,369.591 381,372.5C 377.021,369.762 372.855,367.429 368.5,365.5C 366.77,364.974 365.436,363.974 364.5,362.5C 363.994,360.895 363.327,360.561 362.5,361.5C 362.167,361.5 361.833,361.5 361.5,361.5C 361.5,360.167 360.833,359.5 359.5,359.5C 358.508,359.672 357.842,359.338 357.5,358.5C 357.591,356.302 356.925,355.969 355.5,357.5C 355.179,355.952 354.179,355.285 352.5,355.5C 352.027,354.094 351.027,353.427 349.5,353.5C 349.027,352.094 348.027,351.427 346.5,351.5C 345.341,349.75 343.674,348.75 341.5,348.5C 341.027,347.094 340.027,346.427 338.5,346.5C 337.341,344.75 335.674,343.75 333.5,343.5C 332.341,341.75 330.674,340.75 328.5,340.5C 328.027,339.094 327.027,338.427 325.5,338.5C 324.341,336.75 322.674,335.75 320.5,335.5C 313.513,330.337 306.18,325.67 298.5,321.5C 298.027,320.094 297.027,319.427 295.5,319.5C 295.591,317.302 294.925,316.969 293.5,318.5C 292.833,318.167 292.167,317.833 291.5,317.5C 291.179,315.952 290.179,315.285 288.5,315.5C 287.965,313.554 286.632,312.554 284.5,312.5C 283.341,310.75 281.674,309.75 279.5,309.5C 277.66,307.331 275.326,305.998 272.5,305.5C 269.412,302.016 265.579,299.35 261,297.5C 259.719,297.381 258.552,297.881 257.5,299C 257.425,304.005 257.425,309.005 257.5,314C 255.625,317.972 255.625,322.138 257.5,326.5C 256.163,329.451 256.496,332.117 258.5,334.5C 258.738,336.404 259.738,337.738 261.5,338.5C 263.322,344.107 266.655,345.774 271.5,343.5C 273.855,343.552 275.188,344.719 275.5,347C 275.386,350.048 275.386,353.048 275.5,356C 274.5,359 273.5,362 272.5,365C 273.925,366.714 273.592,368.047 271.5,369C 272.854,370.957 272.521,372.957 270.5,375C 271.167,375.333 271.833,375.667 272.5,376C 272.264,377.451 272.264,378.951 272.5,380.5C 272.5,380.833 272.5,381.167 272.5,381.5C 272.142,386.988 272.142,392.821 272.5,399C 271.237,400.705 270.903,402.372 271.5,404C 270.167,404.667 269.167,405.667 268.5,407C 268.04,411.896 268.04,416.896 268.5,422C 266.487,422.875 266.487,424.209 268.5,426C 266.605,428.816 266.605,431.316 268.5,433.5C 268.5,433.833 268.5,434.167 268.5,434.5C 267.784,436.556 267.117,438.723 266.5,441C 267.167,442 267.833,443 268.5,444C 267.99,447.744 267.99,451.744 268.5,456C 267.833,456.333 267.167,456.667 266.5,457C 266.223,459.751 266.556,462.251 267.5,464.5C 266.761,464.369 266.094,464.536 265.5,465C 265.292,468.488 265.625,471.988 266.5,475.5C 266.5,475.833 266.5,476.167 266.5,476.5C 265.85,476.804 265.183,477.137 264.5,477.5C 263.253,475.994 263.253,474.494 264.5,473C 262.875,472.147 262.542,471.147 263.5,470C 260.569,469.141 259.569,467.475 260.5,465C 259.65,463.096 258.65,461.096 257.5,459C 257.957,458.586 258.291,458.086 258.5,457.5C 257.07,453.229 256.403,449.062 256.5,445C 258.606,442.888 258.273,440.888 255.5,439C 259.002,436.989 259.002,435.656 255.5,435C 255.5,433 255.5,431 255.5,429C 256.167,428.333 256.833,427.667 257.5,427C 256.167,425.667 254.833,424.333 253.5,423C 254.833,422.667 256.167,422.333 257.5,422C 252.774,421.45 251.774,419.45 254.5,416C 253.167,414 253.167,412 254.5,410C 253.128,408.758 252.128,407.258 251.5,405.5C 252.123,403.097 252.456,400.597 252.5,398C 250.479,395.957 250.146,393.957 251.5,392C 250.833,391.667 250.167,391.333 249.5,391C 250.641,390.259 250.641,389.425 249.5,388.5C 250.025,387.808 250.692,387.308 251.5,387C 248.717,383.507 247.717,379.674 248.5,375.5C 243.713,369.323 243.38,363.49 247.5,358C 245.699,357.683 245.366,357.016 246.5,356C 243.833,354 243.833,352 246.5,350C 245.61,347.555 244.944,344.722 244.5,341.5C 245.18,337.908 245.513,334.741 245.5,332C 244.572,331.612 243.905,330.945 243.5,330C 244.205,328.578 244.539,327.245 244.5,326C 242.699,325.683 242.366,325.016 243.5,324C 242.426,323.261 241.759,322.261 241.5,321C 242.289,320.454 243.289,319.787 244.5,319C 243.833,318.333 243.167,317.667 242.5,317C 243.364,315.863 244.364,314.53 245.5,313C 244.692,312.692 244.025,312.192 243.5,311.5C 243.846,310.304 244.346,310.304 245,311.5C 244.852,310.175 245.018,309.008 245.5,308C 243.884,307.385 242.551,306.385 241.5,305C 245.102,300.412 245.102,295.746 241.5,291C 241.378,284.425 241.711,277.758 242.5,271C 240.344,266.4 239.344,261.734 239.5,257C 242.014,254.933 241.848,253.433 239,252.5C 238.935,257.018 238.269,261.351 237,265.5C 233.512,265.048 229.846,264.048 226,262.5C 225.127,262.735 224.293,263.069 223.5,263.5C 219.031,260.875 214.365,260.208 209.5,261.5C 209.631,260.624 209.298,259.957 208.5,259.5C 206.452,258.23 204.452,257.897 202.5,258.5C 194.476,254.495 186.143,250.995 177.5,248C 174.676,245.387 171.342,243.721 167.5,243C 168.654,242.086 168.487,241.253 167,240.5C 166.667,240.833 166.333,241.167 166,241.5C 159.991,239.289 153.825,237.623 147.5,236.5C 144.867,237.374 142.534,236.707 140.5,234.5C 139.152,233.814 137.985,232.814 137,231.5C 136.617,232.056 136.117,232.389 135.5,232.5C 133.883,231.962 132.216,231.629 130.5,231.5C 129.655,229.238 128.322,228.571 126.5,229.5C 125.467,227.915 124.134,226.581 122.5,225.5C 120.897,224.404 119.397,223.07 118,221.5C 117.617,222.056 117.117,222.389 116.5,222.5C 115.209,222.737 114.209,222.404 113.5,221.5C 107.413,219.107 101.246,216.774 95,214.5C 94.6667,214.833 94.3333,215.167 94,215.5C 92.6667,214.167 91.3333,212.833 90,211.5C 89.0138,212.171 87.8471,212.171 86.5,211.5C 85.713,209.896 84.3797,209.229 82.5,209.5C 81.5248,207.487 79.8581,206.154 77.5,205.5C 75.362,205.362 73.1953,205.362 71,205.5C 68.3038,202.287 64.8038,200.787 60.5,201C 56.9837,199.744 53.9837,197.744 51.5,195C 49.8455,194.392 48.1789,193.892 46.5,193.5C 46.1788,191.952 45.1788,191.285 43.5,191.5C 43.1667,191.5 42.8333,191.5 42.5,191.5C 42.1667,189.167 40.8333,187.833 38.5,187.5C 37.9924,185.767 37.159,185.434 36,186.5C 34.6545,184.658 32.8211,183.658 30.5,183.5C 28.4504,181.453 26.117,179.786 23.5,178.5C 22.5987,177.71 21.9321,176.71 21.5,175.5C 20.791,174.596 19.791,174.263 18.5,174.5C 16.5,170.167 14.5,165.833 12.5,161.5C 11.448,161.649 10.448,161.483 9.5,161C 7.61596,158.116 5.11596,155.949 2,154.5C 1.21739,152.567 1.71739,151.067 3.5,150C 6.19505,149.746 8.69505,149.579 11,149.5C 10.7988,153.153 12.2988,153.486 15.5,150.5C 18.7488,151.397 22.2488,152.397 26,153.5C 34.2938,153.48 42.4605,153.48 50.5,153.5C 52.6121,154.594 54.7787,155.594 57,156.5C 57.5194,155.484 58.3527,154.818 59.5,154.5C 63.29,155.75 67.1234,155.75 71,154.5C 74.459,155.133 77.959,155.8 81.5,156.5C 82.8361,159.472 84.3361,159.805 86,157.5C 86.6054,159.481 87.6054,159.815 89,158.5C 89.804,159.804 90.9707,160.471 92.5,160.5C 95.0837,159.704 97.5837,159.371 100,159.5C 101.324,160.88 102.657,161.214 104,160.5C 104.419,161.672 105.085,162.672 106,163.5C 105.383,161.905 105.716,160.572 107,159.5C 107.333,160.167 107.667,160.833 108,161.5C 108.689,160.643 109.522,159.977 110.5,159.5C 113.797,160.634 117.131,160.634 120.5,159.5C 121.647,159.818 122.481,160.484 123,161.5C 124.085,160.707 125.252,160.04 126.5,159.5C 128.07,159.694 129.57,159.694 131,159.5C 134.423,161.46 137.757,163.126 141,164.5C 143.447,161.292 145.113,161.292 146,164.5C 146.317,162.699 146.984,162.366 148,163.5C 148.484,161.822 149.317,161.156 150.5,161.5C 150.833,161.5 151.167,161.5 151.5,161.5C 151.938,162.506 152.604,162.506 153.5,161.5C 153.638,165.286 154.305,165.286 155.5,161.5C 156.5,161.167 157.167,160.5 157.5,159.5C 159.786,159.595 161.786,160.262 163.5,161.5C 163.409,163.698 164.075,164.031 165.5,162.5C 166.791,162.263 167.791,162.596 168.5,163.5C 169.315,164.837 170.482,165.837 172,166.5C 172.399,166.272 172.565,165.938 172.5,165.5C 172.833,165.5 173.167,165.5 173.5,165.5C 174.664,168.578 176.164,168.912 178,166.5C 179,167.5 180,168.5 181,169.5C 182.779,168.521 184.445,168.854 186,170.5C 189.514,169.489 193.014,169.655 196.5,171C 200.968,173.403 205.301,176.07 209.5,179C 215.662,180.807 221.662,183.14 227.5,186C 230.653,188.047 232.986,190.713 234.5,194C 236.74,194.977 239.073,195.477 241.5,195.5C 241.066,198.166 242.066,199.333 244.5,199C 243.833,198.333 243.167,197.667 242.5,197C 242.479,194.095 242.813,191.095 243.5,188C 242.915,186.698 242.249,185.531 241.5,184.5C 241.205,182.265 241.539,180.265 242.5,178.5C 244.832,177.838 245.499,176.505 244.5,174.5C 246.722,169.208 247.388,163.875 246.5,158.5C 248.603,157.02 248.603,155.853 246.5,155C 246.501,153.601 246.835,152.101 247.5,150.5C 246.972,148.664 246.306,146.997 245.5,145.5C 247.611,142.896 247.611,140.229 245.5,137.5C 245.5,137.167 245.5,136.833 245.5,136.5C 247.434,134.762 247.767,132.929 246.5,131C 247.5,130 248.5,129 249.5,128C 248.833,127.667 248.167,127.333 247.5,127C 248.607,118.448 248.607,109.614 247.5,100.5C 248.074,98.9411 248.74,97.4411 249.5,96C 249.116,95.0494 248.783,94.2161 248.5,93.5C 248.5,93.1667 248.5,92.8333 248.5,92.5C 249.47,88.8918 249.47,85.3918 248.5,82C 249.167,81.3333 249.833,80.6667 250.5,80C 250.347,74.7181 250.014,69.3848 249.5,64C 250.101,62.395 251.101,61.0616 252.5,60C 251.627,58.955 250.627,58.1217 249.5,57.5C 250.345,54.4137 250.011,51.0803 248.5,47.5C 248.736,43.2845 248.736,39.1178 248.5,35C 249.167,34.3333 249.833,33.6667 250.5,33C 250.056,31.4667 249.723,29.9667 249.5,28.5C 251.332,26.7018 251.665,24.8685 250.5,23C 252.312,16.2164 254.645,9.71636 257.5,3.5C 258.833,2.16667 260.167,2.16667 261.5,3.5 Z"/></g>
<g><path style="opacity:1" fill="#050505" d="M 257.5,3.5 C 254.645,9.71636 252.312,16.2164 250.5,23C 251.665,24.8685 251.332,26.7018 249.5,28.5C 249.723,29.9667 250.056,31.4667 250.5,33C 249.833,33.6667 249.167,34.3333 248.5,35C 248.736,39.1178 248.736,43.2845 248.5,47.5C 248.189,42.0709 248.022,36.4042 248,30.5C 249.703,21.355 251.87,12.355 254.5,3.5C 255.5,3.5 256.5,3.5 257.5,3.5 Z"/></g>
<g><path style="opacity:1" fill="#000000" d="M 261.5,3.5 C 268.083,6.82811 270.417,11.9948 268.5,19C 270.101,22.2665 270.934,25.7665 271,29.5C 274.714,37.3459 277.048,45.6793 278,54.5C 278.667,55.1667 279.333,55.8333 280,56.5C 283.282,68.298 285.615,80.298 287,92.5C 288.165,96.3192 289.332,100.152 290.5,104C 288.821,112.743 286.821,121.41 284.5,130C 285.469,134.414 284.135,138.081 280.5,141C 280.925,143.017 280.925,144.851 280.5,146.5C 280.043,147.298 279.376,147.631 278.5,147.5C 278.586,146.504 278.252,145.671 277.5,145C 279.219,141.088 281.219,137.255 283.5,133.5C 283.013,132.554 282.68,131.554 282.5,130.5C 284.318,124.42 285.651,118.253 286.5,112C 284.506,102.551 282.84,93.3844 281.5,84.5C 282.097,84.2648 282.43,83.7648 282.5,83C 282.237,80.5675 281.237,78.5675 279.5,77C 280.167,76.6667 280.833,76.3333 281.5,76C 280.636,73.9287 279.303,72.262 277.5,71C 278.167,70.6667 278.833,70.3333 279.5,70C 279.077,67.437 278.41,64.6037 277.5,61.5C 277.709,60.914 278.043,60.414 278.5,60C 275.621,53.8727 274.287,47.8727 274.5,42C 272.682,36.6998 270.348,31.6998 267.5,27C 267.393,22.7314 267.393,18.398 267.5,14C 266.5,11.6667 264.833,10 262.5,9C 263.308,8.69238 263.975,8.19238 264.5,7.5C 262.712,6.71745 261.712,5.38411 261.5,3.5 Z"/></g>
<g><path style="opacity:1" fill="#000000" d="M 248.5,47.5 C 250.011,51.0803 250.345,54.4137 249.5,57.5C 249.167,57.5 248.833,57.5 248.5,57.5C 248.5,54.1667 248.5,50.8333 248.5,47.5 Z"/></g>
<g><path style="opacity:1" fill="#050505" d="M 248.5,57.5 C 248.833,58.8333 249.167,58.8333 249.5,57.5C 250.627,58.1217 251.627,58.955 252.5,60C 251.101,61.0616 250.101,62.395 249.5,64C 250.014,69.3848 250.347,74.7181 250.5,80C 249.833,80.6667 249.167,81.3333 248.5,82C 249.47,85.3918 249.47,88.8918 248.5,92.5C 247.645,91.4693 246.978,90.3026 246.5,89C 247.305,85.197 247.972,81.3636 248.5,77.5C 248.359,70.7945 248.359,64.1278 248.5,57.5 Z"/></g>
<g><path style="opacity:1" fill="#000000" d="M 281.5,84.5 C 280.711,84.2172 280.044,83.7172 279.5,83C 280.816,82.4719 281.483,82.9719 281.5,84.5 Z"/></g>
<g><path style="opacity:1" fill="#000000" d="M 248.5,93.5 C 248.783,94.2161 249.116,95.0494 249.5,96C 248.74,97.4411 248.074,98.9411 247.5,100.5C 248.607,109.614 248.607,118.448 247.5,127C 248.167,127.333 248.833,127.667 249.5,128C 248.5,129 247.5,130 246.5,131C 247.767,132.929 247.434,134.762 245.5,136.5C 246.675,123.803 246.675,111.136 245.5,98.5C 245.784,96.2406 246.784,94.5739 248.5,93.5 Z"/></g>
<g><path style="opacity:1" fill="#000000" d="M 279.5,115.5 C 282.001,115.511 282.168,116.178 280,117.5C 279.536,116.906 279.369,116.239 279.5,115.5 Z"/></g>
<g><path style="opacity:1" fill="#000000" d="M 303.5,227.5 C 306.369,225.826 309.535,223.826 313,221.5C 314.749,222.299 316.082,221.632 317,219.5C 317.667,222.167 318.333,222.167 319,219.5C 320.8,221.831 322.8,221.831 325,219.5C 326.194,220.43 327.527,221.097 329,221.5C 330.788,220.7 332.455,220.366 334,220.5C 335.925,222.973 337.758,222.973 339.5,220.5C 342.214,221.253 344.714,221.253 347,220.5C 347.388,219.572 348.055,218.905 349,218.5C 350.393,219.615 351.893,220.115 353.5,220C 356.301,218.024 358.468,215.524 360,212.5C 360.333,213.167 360.667,213.833 361,214.5C 372.91,206.242 383.41,196.742 392.5,186C 392.167,185.667 391.833,185.333 391.5,185C 393.725,184.439 395.725,183.439 397.5,182C 397.167,181.667 396.833,181.333 396.5,181C 401.813,177.189 405.813,172.355 408.5,166.5C 409.289,166.217 409.956,165.717 410.5,165C 409.391,163.187 410.058,162.354 412.5,162.5C 412.966,160.799 412.966,159.299 412.5,158C 413.5,157.333 414.5,157.333 415.5,158C 415.167,158.333 414.833,158.667 414.5,159C 415.766,159.309 416.933,159.809 418,160.5C 418.972,158.695 420.139,157.028 421.5,155.5C 426.74,152.476 430.24,148.476 432,143.5C 432.333,143.833 432.667,144.167 433,144.5C 433.833,142.333 435.333,140.833 437.5,140C 437.167,139.667 436.833,139.333 436.5,139C 437.756,138.583 438.423,137.75 438.5,136.5C 440.619,135.262 442.619,133.762 444.5,132C 442.07,131.756 440.07,132.589 438.5,134.5C 438.44,133.957 438.107,133.624 437.5,133.5C 434.496,135.613 431.163,136.947 427.5,137.5C 426.197,136.282 425.197,136.615 424.5,138.5C 422.057,137.68 419.891,138.347 418,140.5C 416.612,139.446 415.112,139.28 413.5,140C 411.246,141.256 408.912,142.423 406.5,143.5C 405.194,144.912 404.36,146.579 404,148.5C 403.195,146.099 402.362,146.266 401.5,149C 396.446,151.389 391.946,154.555 388,158.5C 387,158.167 386,157.833 385,157.5C 382.011,159.418 379.011,161.418 376,163.5C 373.088,161.995 370.755,162.662 369,165.5C 367.667,165.5 366.333,165.5 365,165.5C 360.775,162.026 356.775,162.026 353,165.5C 351.238,164.926 349.405,164.593 347.5,164.5C 350.944,162.563 355.277,160.729 360.5,159C 366.958,154.214 372.291,148.548 376.5,142C 379.496,141.478 381.829,139.978 383.5,137.5C 386.636,135.897 389.803,135.564 393,136.5C 395.853,133.054 399.353,131.721 403.5,132.5C 406.473,131.19 408.807,129.19 410.5,126.5C 412.51,127.349 414.177,126.682 415.5,124.5C 416.167,124.833 416.833,125.167 417.5,125.5C 418.579,123.457 420.246,122.124 422.5,121.5C 425.313,123.275 428.313,124.108 431.5,124C 431.043,123.586 430.709,123.086 430.5,122.5C 433.725,121.959 436.559,120.626 439,118.5C 439.945,118.905 440.612,119.572 441,120.5C 442.333,119.167 443.667,119.167 445,120.5C 447.276,117.936 449.276,118.27 451,121.5C 450.447,123.944 451.281,126.111 453.5,128C 446.091,135.056 439.425,142.056 433.5,149C 427.773,151.727 423.773,156.06 421.5,162C 417.637,163.181 414.137,165.014 411,167.5C 406.67,173.675 402.504,180.008 398.5,186.5C 394.203,187.631 391.369,190.298 390,194.5C 387.617,197.273 384.783,199.439 381.5,201C 382.061,202.566 381.394,203.899 379.5,205C 377.899,205.273 376.399,205.773 375,206.5C 375.311,207.935 375.145,209.268 374.5,210.5C 368.843,214.997 363.177,219.497 357.5,224C 355.265,224.067 353.098,223.567 351,222.5C 349.006,223.664 346.839,224.331 344.5,224.5C 340.883,224.467 337.217,224.467 333.5,224.5C 331.682,223.364 329.682,222.697 327.5,222.5C 323.974,223.362 320.64,224.695 317.5,226.5C 314.882,226.605 312.216,226.439 309.5,226C 310.571,227.825 309.904,228.992 307.5,229.5C 306.476,228.147 305.143,227.48 303.5,227.5 Z"/></g>
<g><path style="opacity:1" fill="#fefffe" d="M 438.5,136.5 C 438.5,135.833 438.5,135.167 438.5,134.5C 440.07,132.589 442.07,131.756 444.5,132C 442.619,133.762 440.619,135.262 438.5,136.5 Z"/></g>
<g><path style="opacity:1" fill="#000000" d="M 245.5,137.5 C 247.611,140.229 247.611,142.896 245.5,145.5C 244.343,142.974 244.343,140.307 245.5,137.5 Z"/></g>
<g><path style="opacity:1" fill="#000000" d="M 50.5,153.5 C 42.4605,153.48 34.2938,153.48 26,153.5C 22.2488,152.397 18.7488,151.397 15.5,150.5C 12.2988,153.486 10.7988,153.153 11,149.5C 8.69505,149.579 6.19505,149.746 3.5,150C 1.71739,151.067 1.21739,152.567 2,154.5C 5.11596,155.949 7.61596,158.116 9.5,161C 10.448,161.483 11.448,161.649 12.5,161.5C 14.5,165.833 16.5,170.167 18.5,174.5C 19.791,174.263 20.791,174.596 21.5,175.5C 20.0222,175.762 18.6888,175.429 17.5,174.5C 15.4235,170.735 13.2568,167.069 11,163.5C 7.5625,160.223 3.72917,157.557 -0.5,155.5C -0.5,154.5 -0.5,153.5 -0.5,152.5C 0.833333,152.167 0.833333,151.833 -0.5,151.5C -0.5,150.5 -0.5,149.5 -0.5,148.5C 2.68796,145.482 6.0213,145.149 9.5,147.5C 10.4776,147.023 11.3109,146.357 12,145.5C 13.9515,147.998 16.2848,148.665 19,147.5C 20.7301,148.74 22.5634,149.74 24.5,150.5C 28.4649,149.47 32.4649,149.303 36.5,150C 41.0826,152.105 45.7493,153.271 50.5,153.5 Z"/></g>
<g><path style="opacity:1" fill="#000000" d="M 245.5,145.5 C 246.306,146.997 246.972,148.664 247.5,150.5C 246.835,152.101 246.501,153.601 246.5,155C 248.603,155.853 248.603,157.02 246.5,158.5C 246.279,157.265 245.612,156.265 244.5,155.5C 245.417,152.242 245.751,148.909 245.5,145.5 Z"/></g>
<g><path style="opacity:1" fill="#000000" d="M 278.5,148.5 C 279.757,149.623 279.424,150.289 277.5,150.5C 277.328,149.508 277.662,148.842 278.5,148.5 Z"/></g>
<g><path style="opacity:1" fill="#000000" d="M 150.5,161.5 C 149.317,161.156 148.484,161.822 148,163.5C 146.984,162.366 146.317,162.699 146,164.5C 145.113,161.292 143.447,161.292 141,164.5C 137.757,163.126 134.423,161.46 131,159.5C 129.57,159.694 128.07,159.694 126.5,159.5C 125.252,160.04 124.085,160.707 123,161.5C 122.481,160.484 121.647,159.818 120.5,159.5C 117.131,160.634 113.797,160.634 110.5,159.5C 109.522,159.977 108.689,160.643 108,161.5C 107.667,160.833 107.333,160.167 107,159.5C 105.716,160.572 105.383,161.905 106,163.5C 105.085,162.672 104.419,161.672 104,160.5C 102.657,161.214 101.324,160.88 100,159.5C 97.5837,159.371 95.0837,159.704 92.5,160.5C 90.9707,160.471 89.804,159.804 89,158.5C 87.6054,159.815 86.6054,159.481 86,157.5C 84.3361,159.805 82.8361,159.472 81.5,156.5C 77.959,155.8 74.459,155.133 71,154.5C 67.1234,155.75 63.29,155.75 59.5,154.5C 58.3527,154.818 57.5194,155.484 57,156.5C 54.7787,155.594 52.6121,154.594 50.5,153.5C 51.1217,152.373 51.955,151.373 53,150.5C 59.5285,152.552 66.1952,153.886 73,154.5C 79.0337,153.589 85.2004,153.256 91.5,153.5C 95.5594,153.811 99.3927,154.811 103,156.5C 105.108,153.21 107.441,152.877 110,155.5C 113.573,155.692 117.24,155.359 121,154.5C 122.961,155.897 125.128,156.897 127.5,157.5C 130.39,156.315 133.224,156.315 136,157.5C 140.32,154.413 143.153,155.413 144.5,160.5C 146.262,160.643 147.929,160.309 149.5,159.5C 150.298,159.957 150.631,160.624 150.5,161.5 Z"/></g>
<g><path style="opacity:1" fill="#000000" d="M 405.5,157.5 C 408.001,157.511 408.168,158.178 406,159.5C 405.536,158.906 405.369,158.239 405.5,157.5 Z"/></g>
<g><path style="opacity:1" fill="#000000" d="M 246.5,158.5 C 247.388,163.875 246.722,169.208 244.5,174.5C 245.499,176.505 244.832,177.838 242.5,178.5C 244.411,171.854 245.745,165.187 246.5,158.5 Z"/></g>
<g><path style="opacity:1" fill="#000000" d="M 401.5,158.5 C 402.713,159.497 402.546,160.497 401,161.5C 400.53,160.423 400.697,159.423 401.5,158.5 Z"/></g>
<g><path style="opacity:1" fill="#000000" d="M 157.5,159.5 C 157.167,160.5 156.5,161.167 155.5,161.5C 155.5,160.167 156.167,159.5 157.5,159.5 Z"/></g>
<g><path style="opacity:1" fill="#000000" d="M 153.5,161.5 C 152.604,162.506 151.938,162.506 151.5,161.5C 152.167,160.167 152.833,160.167 153.5,161.5 Z"/></g>
<g><path style="opacity:1" fill="#000000" d="M 267.5,161.5 C 268.077,160.227 268.743,160.227 269.5,161.5C 269.03,162.463 268.363,162.463 267.5,161.5 Z"/></g>
<g><path style="opacity:1" fill="#000000" d="M 153.5,161.5 C 154.167,161.5 154.833,161.5 155.5,161.5C 154.305,165.286 153.638,165.286 153.5,161.5 Z"/></g>
<g><path style="opacity:1" fill="#000000" d="M 163.5,161.5 C 164.492,161.328 165.158,161.662 165.5,162.5C 164.075,164.031 163.409,163.698 163.5,161.5 Z"/></g>
<g><path style="opacity:1" fill="#000000" d="M 408.5,166.5 C 406.148,165.457 405.981,164.124 408,162.5C 408.49,163.793 408.657,165.127 408.5,166.5 Z"/></g>
<g><path style="opacity:1" fill="#000000" d="M 168.5,163.5 C 170.38,163.229 171.713,163.896 172.5,165.5C 172.565,165.938 172.399,166.272 172,166.5C 170.482,165.837 169.315,164.837 168.5,163.5 Z"/></g>
<g><path style="opacity:1" fill="#040404" d="M 241.5,184.5 C 242.249,185.531 242.915,186.698 243.5,188C 242.813,191.095 242.479,194.095 242.5,197C 243.167,197.667 243.833,198.333 244.5,199C 242.066,199.333 241.066,198.166 241.5,195.5C 239.073,195.477 236.74,194.977 234.5,194C 232.986,190.713 230.653,188.047 227.5,186C 221.662,183.14 215.662,180.807 209.5,179C 205.301,176.07 200.968,173.403 196.5,171C 193.014,169.655 189.514,169.489 186,170.5C 184.445,168.854 182.779,168.521 181,169.5C 180,168.5 179,167.5 178,166.5C 176.164,168.912 174.664,168.578 173.5,165.5C 175.984,164.219 178.318,164.553 180.5,166.5C 190.565,166.132 199.232,169.299 206.5,176C 210.668,177.731 215.002,178.898 219.5,179.5C 221.286,182.389 223.953,183.889 227.5,184C 229.082,186.085 231.082,187.585 233.5,188.5C 234.174,190.517 235.341,192.183 237,193.5C 238.343,192.786 239.676,193.12 241,194.5C 240.31,190.82 240.477,187.487 241.5,184.5 Z"/></g>
<g><path style="opacity:1" fill="#000000" d="M 345.5,165.5 C 345.842,164.662 346.508,164.328 347.5,164.5C 347.591,166.698 346.925,167.031 345.5,165.5 Z"/></g>
<g><path style="opacity:1" fill="#000000" d="M 265.5,167.5 C 266.497,166.287 267.497,166.454 268.5,168C 267.423,168.47 266.423,168.303 265.5,167.5 Z"/></g>
<g><path style="opacity:1" fill="#000000" d="M 344.5,166.5 C 344.631,167.239 344.464,167.906 344,168.5C 340.213,168.336 337.38,170.169 335.5,174C 331.502,175.337 328.168,177.67 325.5,181C 322.69,181.906 320.024,183.073 317.5,184.5C 317.703,182.956 318.37,181.622 319.5,180.5C 322.587,178.872 325.42,176.872 328,174.5C 328.333,174.833 328.667,175.167 329,175.5C 329.49,174.207 329.657,172.873 329.5,171.5C 334.53,169.959 339.53,168.293 344.5,166.5 Z"/></g>
<g><path style="opacity:1" fill="#000000" d="M 263.5,167.5 C 264.043,167.56 264.376,167.893 264.5,168.5C 263.635,169.583 262.635,169.749 261.5,169C 262.416,168.722 263.082,168.222 263.5,167.5 Z"/></g>
<g><path style="opacity:1" fill="#000000" d="M 271.5,169.5 C 272.077,168.227 272.743,168.227 273.5,169.5C 273.03,170.463 272.363,170.463 271.5,169.5 Z"/></g>
<g><path style="opacity:1" fill="#000000" d="M 275.5,168.5 C 276.833,170.167 276.833,171.833 275.5,173.5C 275.178,172.142 275.178,170.475 275.5,168.5 Z"/></g>
<g><path style="opacity:1" fill="#000000" d="M 266.5,169.5 C 269.001,169.511 269.168,170.178 267,171.5C 266.536,170.906 266.369,170.239 266.5,169.5 Z"/></g>
<g><path style="opacity:1" fill="#000000" d="M 187.5,172.5 C 188.289,172.783 188.956,173.283 189.5,174C 185.566,176.221 184.899,175.721 187.5,172.5 Z"/></g>
<g><path style="opacity:1" fill="#000000" d="M 190.5,175.5 C 191.716,175.264 192.883,175.264 194,175.5C 194.667,176.5 194.667,177.5 194,178.5C 192.641,177.635 191.474,176.635 190.5,175.5 Z"/></g>
<g><path style="opacity:1" fill="#000000" d="M 337.5,175.5 C 339.496,174.312 340.329,174.979 340,177.5C 339.292,176.619 338.458,175.953 337.5,175.5 Z"/></g>
<g><path style="opacity:1" fill="#000000" d="M 198.5,175.5 C 200.646,175.696 200.812,176.696 199,178.5C 197.272,177.648 197.105,176.648 198.5,175.5 Z"/></g>
<g><path style="opacity:1" fill="#000000" d="M 195.5,176.5 C 196.249,177.531 196.915,178.698 197.5,180C 197.07,180.92 196.736,181.753 196.5,182.5C 195.692,182.192 195.025,181.692 194.5,181C 195.38,179.644 195.714,178.144 195.5,176.5 Z"/></g>
<g><path style="opacity:1" fill="#000000" d="M 267.5,177.5 C 270.001,177.511 270.168,178.178 268,179.5C 267.536,178.906 267.369,178.239 267.5,177.5 Z"/></g>
<g><path style="opacity:1" fill="#000000" d="M 23.5,178.5 C 26.117,179.786 28.4504,181.453 30.5,183.5C 27.3257,182.99 24.9923,181.323 23.5,178.5 Z"/></g>
<g><path style="opacity:1" fill="#000000" d="M 185.5,178.5 C 186.975,179.262 188.309,179.595 189.5,179.5C 187.363,182.362 186.03,182.029 185.5,178.5 Z"/></g>
<g><path style="opacity:1" fill="#000000" d="M 191.5,179.5 C 194.137,181.154 193.803,181.654 190.5,181C 191.056,180.617 191.389,180.117 191.5,179.5 Z"/></g>
<g><path style="opacity:1" fill="#000000" d="M 275.5,180.5 C 276.833,181.167 276.833,181.833 275.5,182.5C 274.494,181.604 274.494,180.938 275.5,180.5 Z"/></g>
<g><path style="opacity:1" fill="#000000" d="M 30.5,183.5 C 32.8211,183.658 34.6545,184.658 36,186.5C 37.159,185.434 37.9924,185.767 38.5,187.5C 35.2901,187.13 32.6235,185.797 30.5,183.5 Z"/></g>
<g><path style="opacity:1" fill="#000000" d="M 192.5,185.5 C 193.497,184.287 194.497,184.454 195.5,186C 194.423,186.47 193.423,186.303 192.5,185.5 Z"/></g>
<g><path style="opacity:1" fill="#000000" d="M 317.5,184.5 C 313.867,187.121 310.2,189.788 306.5,192.5C 304.321,196.691 300.988,199.525 296.5,201C 294.88,203.579 292.88,204.746 290.5,204.5C 292.905,200.841 295.905,197.008 299.5,193C 302.089,191.803 304.756,190.803 307.5,190C 308.094,188.018 309.26,186.184 311,184.5C 313.027,184.986 315.193,184.986 317.5,184.5 Z"/></g>
<g><path style="opacity:1" fill="#000000" d="M 198.5,186.5 C 197.637,187.463 196.97,187.463 196.5,186.5C 197.257,185.227 197.923,185.227 198.5,186.5 Z"/></g>
<g><path style="opacity:1" fill="#000000" d="M 198.5,186.5 C 200.475,186.164 202.475,186.664 204.5,188C 202.749,189.145 200.916,189.645 199,189.5C 198.517,188.552 198.351,187.552 198.5,186.5 Z"/></g>
<g><path style="opacity:1" fill="#000000" d="M 365.5,186.5 C 367.332,187.14 367.665,188.14 366.5,189.5C 365.614,188.675 365.281,187.675 365.5,186.5 Z"/></g>
<g><path style="opacity:1" fill="#000000" d="M 38.5,187.5 C 40.8333,187.833 42.1667,189.167 42.5,191.5C 40.8333,190.5 39.5,189.167 38.5,187.5 Z"/></g>
<g><path style="opacity:1" fill="#000000" d="M 43.5,191.5 C 45.1788,191.285 46.1788,191.952 46.5,193.5C 45.2905,193.068 44.2905,192.401 43.5,191.5 Z"/></g>
<g><path style="opacity:1" fill="#000000" d="M 273.5,191.5 C 273.33,195.682 273.33,199.682 273.5,203.5C 273.03,204.463 272.363,204.463 271.5,203.5C 272.333,201.248 272.333,199.081 271.5,197C 272.109,195.052 272.776,193.218 273.5,191.5 Z"/></g>
<g><path style="opacity:1" fill="#000000" d="M 46.5,193.5 C 48.1789,193.892 49.8455,194.392 51.5,195C 53.9837,197.744 56.9837,199.744 60.5,201C 64.8038,200.787 68.3038,202.287 71,205.5C 73.1953,205.362 75.362,205.362 77.5,205.5C 79.8581,206.154 81.5248,207.487 82.5,209.5C 74.9736,207.646 67.6403,205.48 60.5,203C 55.4028,200.391 50.7361,197.225 46.5,193.5 Z"/></g>
<g><path style="opacity:1" fill="#000000" d="M 243.5,204.5 C 242.402,203.399 242.235,202.066 243,200.5C 244.511,201.564 244.677,202.897 243.5,204.5 Z"/></g>
<g><path style="opacity:1" fill="#000000" d="M 370.5,202.5 C 371.289,202.783 371.956,203.283 372.5,204C 371.184,204.528 370.517,204.028 370.5,202.5 Z"/></g>
<g><path style="opacity:1" fill="#000000" d="M 243.5,204.5 C 245.994,206.594 245.994,208.594 243.5,210.5C 243.07,208.62 243.07,206.62 243.5,204.5 Z"/></g>
<g><path style="opacity:1" fill="#000000" d="M 271.5,204.5 C 271.459,208.616 270.793,212.616 269.5,216.5C 270.93,216.579 272.264,216.246 273.5,215.5C 274.324,213.579 275.657,212.246 277.5,211.5C 275.079,218.821 271.079,219.987 265.5,215C 268.575,211.639 270.575,208.139 271.5,204.5 Z"/></g>
<g><path style="opacity:1" fill="#000000" d="M 290.5,204.5 C 289.713,206.104 288.38,206.771 286.5,206.5C 287.514,205.326 288.847,204.66 290.5,204.5 Z"/></g>
<g><path style="opacity:1" fill="#000000" d="M 286.5,206.5 C 285.415,208.587 283.749,209.92 281.5,210.5C 282.585,208.413 284.251,207.08 286.5,206.5 Z"/></g>
<g><path style="opacity:1" fill="#000000" d="M 82.5,209.5 C 84.3797,209.229 85.713,209.896 86.5,211.5C 84.847,211.34 83.5137,210.674 82.5,209.5 Z"/></g>
<g><path style="opacity:1" fill="#000000" d="M 243.5,210.5 C 243.217,211.289 242.717,211.956 242,212.5C 241.472,211.184 241.972,210.517 243.5,210.5 Z"/></g>
<g><path style="opacity:1" fill="#000000" d="M 277.5,211.5 C 278.568,210.566 279.901,210.232 281.5,210.5C 281.631,211.239 281.464,211.906 281,212.5C 279.855,212.381 278.688,212.048 277.5,211.5 Z"/></g>
<g><path style="opacity:1" fill="#000000" d="M 86.5,211.5 C 87.8471,212.171 89.0138,212.171 90,211.5C 91.3333,212.833 92.6667,214.167 94,215.5C 94.3333,215.167 94.6667,214.833 95,214.5C 101.246,216.774 107.413,219.107 113.5,221.5C 107.11,220.316 100.777,218.816 94.5,217C 91.9066,214.886 89.2399,213.053 86.5,211.5 Z"/></g>
<g><path style="opacity:1" fill="#000000" d="M 239.5,214.5 C 241.852,215.543 242.019,216.876 240,218.5C 239.51,217.207 239.343,215.873 239.5,214.5 Z"/></g>
<g><path style="opacity:1" fill="#000000" d="M 122.5,225.5 C 120.03,225.346 118.03,224.346 116.5,222.5C 117.117,222.389 117.617,222.056 118,221.5C 119.397,223.07 120.897,224.404 122.5,225.5 Z"/></g>
<g><path style="opacity:1" fill="#000000" d="M 122.5,225.5 C 124.134,226.581 125.467,227.915 126.5,229.5C 125.292,228.766 123.959,228.433 122.5,228.5C 122.5,227.5 122.5,226.5 122.5,225.5 Z"/></g>
<g><path style="opacity:1" fill="#000000" d="M 237.5,227.5 C 240.001,227.511 240.168,228.178 238,229.5C 237.536,228.906 237.369,228.239 237.5,227.5 Z"/></g>
<g><path style="opacity:1" fill="#000000" d="M 245.5,227.5 C 248.382,230.388 248.048,230.888 244.5,229C 245.056,228.617 245.389,228.117 245.5,227.5 Z"/></g>
<g><path style="opacity:1" fill="#000000" d="M 303.5,227.5 C 301.383,229.655 298.716,230.655 295.5,230.5C 295.611,229.883 295.944,229.383 296.5,229C 298.866,228.56 301.199,228.06 303.5,227.5 Z"/></g>
<g><path style="opacity:1" fill="#000000" d="M 130.5,231.5 C 128.847,231.34 127.514,230.674 126.5,229.5C 128.322,228.571 129.655,229.238 130.5,231.5 Z"/></g>
<g><path style="opacity:1" fill="#000000" d="M 154.5,231.5 C 155.077,230.227 155.743,230.227 156.5,231.5C 156.03,232.463 155.363,232.463 154.5,231.5 Z"/></g>
<g><path style="opacity:1" fill="#030303" d="M 295.5,230.5 C 293.691,231.481 292.357,232.981 291.5,235C 293.035,237.624 294.202,240.457 295,243.5C 295.915,244.328 296.581,245.328 297,246.5C 297.561,245.978 298.228,245.645 299,245.5C 301.17,246.762 303.337,247.762 305.5,248.5C 305.565,248.938 305.399,249.272 305,249.5C 302.583,248.648 300.083,247.981 297.5,247.5C 296.287,247.747 295.62,248.414 295.5,249.5C 293.697,247.519 292.03,245.352 290.5,243C 291.167,242.667 291.833,242.333 292.5,242C 290.65,239.982 288.65,238.149 286.5,236.5C 285.52,237.981 284.353,239.315 283,240.5C 282.28,238.888 282.446,237.388 283.5,236C 282.262,236.077 281.262,235.911 280.5,235.5C 282.296,234.859 283.796,233.859 285,232.5C 286,232.833 287,233.167 288,233.5C 290.041,231.35 292.541,230.35 295.5,230.5 Z"/></g>
<g><path style="opacity:1" fill="#000000" d="M 140.5,234.5 C 138.302,234.88 136.635,234.213 135.5,232.5C 136.117,232.389 136.617,232.056 137,231.5C 137.985,232.814 139.152,233.814 140.5,234.5 Z"/></g>
<g><path style="opacity:1" fill="#000000" d="M 262.5,233.5 C 263.077,232.227 263.743,232.227 264.5,233.5C 264.03,234.463 263.363,234.463 262.5,233.5 Z"/></g>
<g><path style="opacity:1" fill="#000000" d="M 248.5,234.5 C 250.76,235.238 250.927,236.238 249,237.5C 248.517,236.552 248.351,235.552 248.5,234.5 Z"/></g>
<g><path style="opacity:1" fill="#000000" d="M 147.5,236.5 C 153.825,237.623 159.991,239.289 166,241.5C 166.333,241.167 166.667,240.833 167,240.5C 168.487,241.253 168.654,242.086 167.5,243C 171.342,243.721 174.676,245.387 177.5,248C 186.143,250.995 194.476,254.495 202.5,258.5C 204.452,257.897 206.452,258.23 208.5,259.5C 209.298,259.957 209.631,260.624 209.5,261.5C 203.68,260.104 198.013,258.271 192.5,256C 182.972,252.166 173.806,247.666 165,242.5C 160.176,241.28 155.342,240.113 150.5,239C 149.058,238.623 148.058,237.79 147.5,236.5 Z"/></g>
<g><path style="opacity:1" fill="#000000" d="M 268.5,240.5 C 273.919,241.22 273.752,242.553 268,244.5C 267.5,244 267,243.5 266.5,243C 267.756,242.583 268.423,241.75 268.5,240.5 Z"/></g>
<g><path style="opacity:1" fill="#000000" d="M 478.5,279.5 C 478.5,280.833 478.5,282.167 478.5,283.5C 473.408,284.03 468.741,282.696 464.5,279.5C 465.837,278.685 466.837,277.518 467.5,276C 466.007,274.632 464.507,274.465 463,275.5C 460.516,274.114 458.183,272.447 456,270.5C 455.667,270.833 455.333,271.167 455,271.5C 448.749,268.527 442.249,266.361 435.5,265C 426.496,260.601 416.996,256.435 407,252.5C 405.684,255.028 404.517,255.028 403.5,252.5C 400.08,253.033 396.58,253.366 393,253.5C 392.005,252.934 391.172,252.267 390.5,251.5C 389.504,251.414 388.671,251.748 388,252.5C 387.311,251.643 386.478,250.977 385.5,250.5C 383.409,251.058 381.242,251.391 379,251.5C 375.805,250.443 372.805,249.776 370,249.5C 363.206,250.217 357.206,251.217 352,252.5C 350.333,251.833 348.667,251.167 347,250.5C 343.771,250.41 340.437,250.743 337,251.5C 336,250.833 335,250.167 334,249.5C 331.42,252.117 328.42,252.117 325,249.5C 323.629,249.243 322.129,249.577 320.5,250.5C 318.962,250.547 317.962,249.88 317.5,248.5C 320.956,247.895 324.623,247.895 328.5,248.5C 335.226,243.918 342.393,242.918 350,245.5C 353.749,243.437 357.416,243.77 361,246.5C 366.951,242.319 372.951,241.985 379,245.5C 379.739,244.426 380.739,243.759 382,243.5C 384.843,244.921 387.843,245.921 391,246.5C 392.796,245.233 394.629,245.233 396.5,246.5C 397.478,246.023 398.311,245.357 399,244.5C 401.101,245.924 403.267,247.258 405.5,248.5C 406.748,247.96 407.915,247.293 409,246.5C 408.763,249.966 410.596,252.133 414.5,253C 414.167,253.333 413.833,253.667 413.5,254C 417.323,255.277 420.99,256.943 424.5,259C 425.899,259.595 427.232,259.428 428.5,258.5C 429.936,260.822 431.77,261.489 434,260.5C 437.206,262.519 440.706,263.519 444.5,263.5C 444.5,264.5 444.5,265.5 444.5,266.5C 447.365,266.055 449.865,266.722 452,268.5C 452.333,267.833 452.667,267.167 453,266.5C 459.268,269.962 466.101,271.795 473.5,272C 476.443,274.146 478.109,276.646 478.5,279.5 Z"/></g>
<g><path style="opacity:1" fill="#000000" d="M 254.5,246.5 C 254.511,243.999 255.178,243.832 256.5,246C 255.906,246.464 255.239,246.631 254.5,246.5 Z"/></g>
<g><path style="opacity:1" fill="#000000" d="M 237.5,245.5 C 239.085,246.002 239.585,247.002 239,248.5C 237.961,247.756 237.461,246.756 237.5,245.5 Z"/></g>
<g><path style="opacity:1" fill="#000000" d="M 254.5,246.5 C 254.304,248.646 253.304,248.812 251.5,247C 252.448,246.517 253.448,246.351 254.5,246.5 Z"/></g>
<g><path style="opacity:1" fill="#000000" d="M 314.5,248.5 C 313.739,249.391 312.739,250.058 311.5,250.5C 309.574,249.325 307.907,248.659 306.5,248.5C 307.261,247.609 308.261,246.942 309.5,246.5C 311.075,247.456 312.742,248.123 314.5,248.5 Z"/></g>
<g><path style="opacity:1" fill="#000000" d="M 244.5,247.5 C 246.657,248.053 246.49,249.053 244,250.5C 243.53,249.423 243.697,248.423 244.5,247.5 Z"/></g>
<g><path style="opacity:1" fill="#000000" d="M 314.5,248.5 C 315.5,247.167 316.5,247.167 317.5,248.5C 316.5,249.833 315.5,249.833 314.5,248.5 Z"/></g>
<g><path style="opacity:1" fill="#000000" d="M 295.5,249.5 C 299.844,252.017 300.011,254.35 296,256.5C 294.548,255.093 294.715,253.593 296.5,252C 294.381,251.658 294.047,250.825 295.5,249.5 Z"/></g>
<g><path style="opacity:1" fill="#000000" d="M 247.5,255.5 C 250.001,255.511 250.168,256.178 248,257.5C 247.536,256.906 247.369,256.239 247.5,255.5 Z"/></g>
<g><path style="opacity:1" fill="#eeeeee" d="M 204.5,316.5 C 203.833,316.5 203.167,316.5 202.5,316.5C 200.951,316.264 199.451,316.264 198,316.5C 197.487,317.527 196.987,318.527 196.5,319.5C 195.105,318.185 194.105,318.519 193.5,320.5C 193.158,321.338 192.492,321.672 191.5,321.5C 190.833,321.167 190.167,320.833 189.5,320.5C 189.167,321.167 188.833,321.833 188.5,322.5C 188.167,322.5 187.833,322.5 187.5,322.5C 187.565,322.062 187.399,321.728 187,321.5C 185.47,322.636 184.137,323.636 183,324.5C 181.927,323.72 180.76,323.887 179.5,325C 180.863,327.129 180.529,327.629 178.5,326.5C 174.652,329.174 170.485,331.174 166,332.5C 165.667,332.167 165.333,331.833 165,331.5C 163.566,333.136 161.733,334.136 159.5,334.5C 158.914,334.291 158.414,333.957 158,333.5C 153.262,336.449 148.429,338.449 143.5,339.5C 143.264,338.753 142.93,337.92 142.5,337C 146.449,336.001 147.782,333.834 146.5,330.5C 145.719,332.628 144.719,332.795 143.5,331C 143.833,330.667 144.167,330.333 144.5,330C 143.256,329.544 142.423,330.044 142,331.5C 140.312,330.675 140.145,329.675 141.5,328.5C 140.833,327.167 140.167,327.167 139.5,328.5C 138.872,330.258 137.872,331.758 136.5,333C 137.167,333.333 137.833,333.667 138.5,334C 138.167,335 137.833,336 137.5,337C 140.544,337.359 140.878,338.026 138.5,339C 139.833,339.667 139.833,340.333 138.5,341C 133.396,340.721 128.563,340.554 124,340.5C 121.142,341.893 118.308,343.227 115.5,344.5C 114.209,344.737 113.209,344.404 112.5,343.5C 108.413,345.176 104.413,346.842 100.5,348.5C 99.8826,348.389 99.3826,348.056 99,347.5C 96.6742,347.88 94.8409,348.88 93.5,350.5C 90.1379,350.07 87.3046,351.07 85,353.5C 83.1843,353.351 81.351,353.351 79.5,353.5C 79.631,352.761 79.4643,352.094 79,351.5C 77.4477,351.011 76.281,351.678 75.5,353.5C 70.9646,352.525 66.298,351.192 61.5,349.5C 60.5968,346.075 59.0968,345.742 57,348.5C 54.9637,347.898 53.1303,346.898 51.5,345.5C 49.1401,346.172 47.1401,345.339 45.5,343C 43.567,342.749 41.7337,342.249 40,341.5C 39.6174,342.056 39.1174,342.389 38.5,342.5C 35.2105,340.842 31.8772,339.175 28.5,337.5C 27.1667,336.5 27.1667,335.5 28.5,334.5C 29.1667,334.167 29.8333,333.833 30.5,333.5C 32.752,335.445 34.752,334.778 36.5,331.5C 36.5,330.833 36.8333,330.5 37.5,330.5C 39.3989,331.045 41.0655,330.378 42.5,328.5C 43.6715,327.655 45.0048,326.989 46.5,326.5C 47.9952,326.011 49.3285,325.345 50.5,324.5C 53.0506,323.225 54.0506,321.391 53.5,319C 55.1667,317.667 56.8333,316.333 58.5,315C 83.0676,309.275 107.401,303.109 131.5,296.5C 134.288,296.915 136.955,296.249 139.5,294.5C 139.833,294.5 140.167,294.5 140.5,294.5C 140.435,294.938 140.601,295.272 141,295.5C 141.995,294.934 142.828,294.267 143.5,293.5C 143.833,293.5 144.167,293.5 144.5,293.5C 144.435,293.938 144.601,294.272 145,294.5C 145.995,293.934 146.828,293.267 147.5,292.5C 147.833,292.5 148.167,292.5 148.5,292.5C 148.435,292.938 148.601,293.272 149,293.5C 150.302,292.915 151.469,292.249 152.5,291.5C 153.895,292.815 154.895,292.481 155.5,290.5C 155.833,290.5 156.167,290.5 156.5,290.5C 156.435,290.938 156.601,291.272 157,291.5C 157.995,290.934 158.828,290.267 159.5,289.5C 159.833,289.5 160.167,289.5 160.5,289.5C 160.5,290.167 160.833,290.5 161.5,290.5C 162.5,289.833 163.5,289.167 164.5,288.5C 173.582,285.563 182.915,283.229 192.5,281.5C 193.791,281.737 194.791,281.404 195.5,280.5C 195.833,280.5 196.167,280.5 196.5,280.5C 199.116,279.52 201.449,278.02 203.5,276C 203.272,275.601 202.938,275.435 202.5,275.5C 202.5,275.167 202.5,274.833 202.5,274.5C 206.613,273.028 210.78,271.695 215,270.5C 218.087,270.904 220.754,272.237 223,274.5C 224.808,274.112 226.475,274.112 228,274.5C 228.479,272.354 229.812,271.354 232,271.5C 234.164,273.16 236.33,273.994 238.5,274C 237.833,275.667 237.167,277.333 236.5,279C 236.848,281.055 236.181,283.055 234.5,285C 235.76,286.814 235.76,288.647 234.5,290.5C 230.383,291.076 226.383,291.909 222.5,293C 222.665,294.117 222.998,295.284 223.5,296.5C 221.07,298.413 218.737,300.913 216.5,304C 215.724,306.995 214.557,309.828 213,312.5C 210.212,311.834 207.712,312.667 205.5,315C 206.712,316.107 206.379,316.607 204.5,316.5 Z"/></g>
<g><path style="opacity:1" fill="#000000" d="M 202.5,275.5 C 202.938,275.435 203.272,275.601 203.5,276C 201.449,278.02 199.116,279.52 196.5,280.5C 197.911,278.086 199.911,276.419 202.5,275.5 Z"/></g>
<g><path style="opacity:1" fill="#000000" d="M 433.5,279.5 C 430.545,278.841 427.545,278.508 424.5,278.5C 427.766,275.719 430.766,276.053 433.5,279.5 Z"/></g>
<g><path style="opacity:1" fill="#000000" d="M 458.5,279.5 C 456.833,279.5 455.167,279.5 453.5,279.5C 454.531,278.751 455.698,278.085 457,277.5C 457.717,278.044 458.217,278.711 458.5,279.5 Z"/></g>
<g><path style="opacity:1" fill="#000000" d="M 257.5,279.5 C 258.497,278.287 259.497,278.454 260.5,280C 259.423,280.47 258.423,280.303 257.5,279.5 Z"/></g>
<g><path style="opacity:1" fill="#010101" d="M 422.5,278.5 C 412.351,284.107 401.517,285.774 390,283.5C 386.763,284.796 383.763,286.463 381,288.5C 380.228,288.355 379.561,288.022 379,287.5C 376.631,288.551 374.131,289.218 371.5,289.5C 361.182,287.416 350.849,286.416 340.5,286.5C 336.444,288.565 332.278,289.232 328,288.5C 323.539,289.438 319.039,290.105 314.5,290.5C 308.735,289.63 303.069,289.297 297.5,289.5C 296.707,290.355 297.04,291.189 298.5,292C 300.167,292.333 301.833,292.667 303.5,293C 305.002,295.547 307.002,296.38 309.5,295.5C 311.505,298.028 313.171,297.695 314.5,294.5C 315.386,295.325 315.719,296.325 315.5,297.5C 320.334,298.255 324.334,300.589 327.5,304.5C 329.793,304.974 331.959,304.308 334,302.5C 334.5,302.833 335,303.167 335.5,303.5C 334.5,304.333 333.5,305.167 332.5,306C 335.167,307 337.833,308 340.5,309C 345.523,314.357 350.856,319.357 356.5,324C 358.275,325.439 360.275,326.439 362.5,327C 366.458,332.798 371.458,337.298 377.5,340.5C 377.833,341 378.167,341.5 378.5,342C 377.616,343.098 376.616,343.598 375.5,343.5C 380.87,350.528 382.87,358.361 381.5,367C 382.782,369.281 383.448,371.781 383.5,374.5C 382.041,374.567 380.708,374.234 379.5,373.5C 375.656,371.078 371.99,368.411 368.5,365.5C 372.855,367.429 377.021,369.762 381,372.5C 380.716,369.591 380.883,366.758 381.5,364C 378.23,350.122 371.897,338.622 362.5,329.5C 359.709,326.727 357.875,327.393 357,331.5C 355.866,329.206 355.366,327.039 355.5,325C 342.355,319.501 329.522,312.668 317,304.5C 316.667,305.167 316.333,305.833 316,306.5C 314.269,304.383 312.102,302.883 309.5,302C 302.262,299.848 295.762,297.015 290,293.5C 289.667,293.833 289.333,294.167 289,294.5C 288.683,292.699 288.016,292.366 287,293.5C 283.908,291.371 280.742,289.371 277.5,287.5C 275.678,288.429 274.345,287.762 273.5,285.5C 270.001,284.297 266.668,282.797 263.5,281C 264.676,279.086 265.676,279.252 266.5,281.5C 268.545,279.525 270.212,279.525 271.5,281.5C 272.611,280.389 273.945,279.722 275.5,279.5C 281.167,280.26 285.833,282.76 289.5,287C 291.218,287.346 292.885,287.846 294.5,288.5C 298.413,288.478 302.246,288.145 306,287.5C 309.667,288.167 313.333,288.833 317,289.5C 318.845,287.65 320.845,287.317 323,288.5C 328.965,287.575 334.965,286.575 341,285.5C 344.264,286.738 347.264,286.071 350,283.5C 351.91,284.206 353.91,285.206 356,286.5C 358.093,285.754 360.093,285.421 362,285.5C 365.581,286.254 369.081,287.254 372.5,288.5C 377.081,287.758 381.248,286.091 385,283.5C 385.333,283.833 385.667,284.167 386,284.5C 386.419,283.328 387.085,282.328 388,281.5C 393.147,283.023 398.314,283.69 403.5,283.5C 405.258,282.872 406.758,281.872 408,280.5C 408.725,281.059 409.558,281.392 410.5,281.5C 414.518,280.492 418.518,279.492 422.5,278.5 Z"/></g>
<g><path style="opacity:1" fill="#000000" d="M 453.5,279.5 C 449.409,282.602 445.076,282.935 440.5,280.5C 438.969,281.421 437.635,281.088 436.5,279.5C 441.904,280.239 447.571,280.239 453.5,279.5 Z"/></g>
<g><path style="opacity:1" fill="#000000" d="M 463.5,279.5 C 461.833,280.833 460.167,280.833 458.5,279.5C 460.167,278.167 461.833,278.167 463.5,279.5 Z"/></g>
<g><path style="opacity:1" fill="#000000" d="M 195.5,280.5 C 194.791,281.404 193.791,281.737 192.5,281.5C 193.172,280.733 194.005,280.066 195,279.5C 195.399,279.728 195.565,280.062 195.5,280.5 Z"/></g>
<g><path style="opacity:1" fill="#000000" d="M 164.5,288.5 C 163.5,289.167 162.5,289.833 161.5,290.5C 160.833,290.5 160.5,290.167 160.5,289.5C 161.568,288.566 162.901,288.232 164.5,288.5 Z"/></g>
<g><path style="opacity:1" fill="#000000" d="M 159.5,289.5 C 158.828,290.267 157.995,290.934 157,291.5C 156.601,291.272 156.435,290.938 156.5,290.5C 157.209,289.596 158.209,289.263 159.5,289.5 Z"/></g>
<g><path style="opacity:1" fill="#000000" d="M 152.5,291.5 C 153.209,290.596 154.209,290.263 155.5,290.5C 154.895,292.481 153.895,292.815 152.5,291.5 Z"/></g>
<g><path style="opacity:1" fill="#000000" d="M 161.5,290.5 C 162.289,290.783 162.956,291.283 163.5,292C 162.184,292.528 161.517,292.028 161.5,290.5 Z"/></g>
<g><path style="opacity:1" fill="#000000" d="M 152.5,291.5 C 151.469,292.249 150.302,292.915 149,293.5C 148.601,293.272 148.435,292.938 148.5,292.5C 149.568,291.566 150.901,291.232 152.5,291.5 Z"/></g>
<g><path style="opacity:1" fill="#000000" d="M 147.5,292.5 C 146.828,293.267 145.995,293.934 145,294.5C 144.601,294.272 144.435,293.938 144.5,293.5C 145.209,292.596 146.209,292.263 147.5,292.5 Z"/></g>
<g><path style="opacity:1" fill="#000000" d="M 143.5,293.5 C 142.828,294.267 141.995,294.934 141,295.5C 140.601,295.272 140.435,294.938 140.5,294.5C 141.209,293.596 142.209,293.263 143.5,293.5 Z"/></g>
<g><path style="opacity:1" fill="#000000" d="M 139.5,294.5 C 136.955,296.249 134.288,296.915 131.5,296.5C 133.905,295.232 136.572,294.565 139.5,294.5 Z"/></g>
<g><path style="opacity:1" fill="#000000" d="M 131.5,296.5 C 107.401,303.109 83.0676,309.275 58.5,315C 56.8333,316.333 55.1667,317.667 53.5,319C 54.0506,321.391 53.0506,323.225 50.5,324.5C 51.0873,320.155 53.0873,316.655 56.5,314C 81.4087,307.719 106.409,301.885 131.5,296.5 Z"/></g>
<g><path style="opacity:1" fill="#000000" d="M 272.5,305.5 C 268.55,302.692 264.217,300.692 259.5,299.5C 257.965,311.168 257.632,322.835 258.5,334.5C 256.496,332.117 256.163,329.451 257.5,326.5C 255.625,322.138 255.625,317.972 257.5,314C 257.425,309.005 257.425,304.005 257.5,299C 258.552,297.881 259.719,297.381 261,297.5C 265.579,299.35 269.412,302.016 272.5,305.5 Z"/></g>
<g><path style="opacity:1" fill="#131313" d="M 185.5,310.5 C 185.414,308.323 184.747,306.323 183.5,304.5C 184.285,301.847 185.785,301.18 188,302.5C 188.333,301.833 188.667,301.167 189,300.5C 189.667,301.833 189.667,303.167 189,304.5C 188.667,304.167 188.333,303.833 188,303.5C 187.691,304.766 187.191,305.933 186.5,307C 187.287,308.313 186.954,309.48 185.5,310.5 Z"/></g>
<g><path style="opacity:1" fill="#000000" d="M 245.5,302.5 C 246.251,301.427 247.251,301.26 248.5,302C 247.648,303.728 246.648,303.895 245.5,302.5 Z"/></g>
<g><path style="opacity:1" fill="#000000" d="M 272.5,305.5 C 275.326,305.998 277.66,307.331 279.5,309.5C 276.669,308.921 274.336,307.588 272.5,305.5 Z"/></g>
<g><path style="opacity:1" fill="#000000" d="M 286.5,306.5 C 288.76,307.238 288.927,308.238 287,309.5C 286.517,308.552 286.351,307.552 286.5,306.5 Z"/></g>
<g><path style="opacity:1" fill="#000000" d="M 279.5,309.5 C 281.674,309.75 283.341,310.75 284.5,312.5C 282.326,312.25 280.659,311.25 279.5,309.5 Z"/></g>
<g><path style="opacity:1" fill="#0e0e0e" d="M 185.5,310.5 C 185.5,311.5 185.5,312.5 185.5,313.5C 186.552,313.351 187.552,313.517 188.5,314C 187.366,315.016 187.699,315.683 189.5,316C 188.833,316.333 188.167,316.667 187.5,317C 188.823,317.816 189.489,318.983 189.5,320.5C 188.127,320.657 186.793,320.49 185.5,320C 185.347,317.39 184.014,315.057 181.5,313C 182.738,313.077 183.738,312.911 184.5,312.5C 183.019,311.52 181.685,310.353 180.5,309C 181,308.5 181.5,308 182,307.5C 183.155,308.338 184.322,309.338 185.5,310.5 Z"/></g>
<g><path style="opacity:1" fill="#000000" d="M 284.5,312.5 C 286.632,312.554 287.965,313.554 288.5,315.5C 286.77,314.974 285.436,313.974 284.5,312.5 Z"/></g>
<g><path style="opacity:1" fill="#000000" d="M 202.5,316.5 C 200.819,318.008 198.819,319.008 196.5,319.5C 196.987,318.527 197.487,317.527 198,316.5C 199.451,316.264 200.951,316.264 202.5,316.5 Z"/></g>
<g><path style="opacity:1" fill="#000000" d="M 288.5,315.5 C 290.179,315.285 291.179,315.952 291.5,317.5C 290.29,317.068 289.29,316.401 288.5,315.5 Z"/></g>
<g><path style="opacity:1" fill="#000000" d="M 295.5,319.5 C 294.508,319.672 293.842,319.338 293.5,318.5C 294.925,316.969 295.591,317.302 295.5,319.5 Z"/></g>
<g><path style="opacity:1" fill="#000000" d="M 180.5,318.5 C 181.773,319.077 181.773,319.743 180.5,320.5C 179.537,320.03 179.537,319.363 180.5,318.5 Z"/></g>
<g><path style="opacity:1" fill="#000000" d="M 196.5,319.5 C 195.791,320.404 194.791,320.737 193.5,320.5C 194.105,318.519 195.105,318.185 196.5,319.5 Z"/></g>
<g><path style="opacity:1" fill="#020202" d="M 266.5,476.5 C 265.718,479.579 265.385,482.579 265.5,485.5C 264.5,485.5 263.5,485.5 262.5,485.5C 261.587,483.914 261.587,482.414 262.5,481C 258.321,480.294 257.654,478.46 260.5,475.5C 259.282,475.891 258.448,475.224 258,473.5C 257.313,471.432 257.48,469.432 258.5,467.5C 257.624,466.749 256.624,466.249 255.5,466C 255.833,465.667 256.167,465.333 256.5,465C 254.422,463.514 253.089,461.514 252.5,459C 256.498,454.668 256.498,450.335 252.5,446C 252.283,441.675 252.283,437.342 252.5,433C 252.318,430.657 251.318,428.824 249.5,427.5C 249.727,425.329 250.06,423.162 250.5,421C 249.183,419.233 247.516,417.899 245.5,417C 246.86,415.062 246.527,413.396 244.5,412C 247.113,408.796 247.113,405.63 244.5,402.5C 244.977,401.522 245.643,400.689 246.5,400C 245.549,396.969 244.549,393.969 243.5,391C 244.603,389.111 244.603,387.277 243.5,385.5C 243.818,384.353 244.484,383.519 245.5,383C 242.294,379.656 241.627,375.156 243.5,369.5C 241.631,364.637 241.298,359.804 242.5,355C 241.833,352.667 241.167,350.333 240.5,348C 239.864,343.867 240.531,339.867 242.5,336C 241.524,330.57 240.691,325.07 240,319.5C 235.618,311.057 234.118,302.057 235.5,292.5C 232.478,292.804 229.478,293.304 226.5,294C 224.996,295.491 224.163,297.324 224,299.5C 222.185,301.405 220.185,303.072 218,304.5C 217.296,310.28 214.13,313.614 208.5,314.5C 207.614,315.325 207.281,316.325 207.5,317.5C 206.209,317.737 205.209,317.404 204.5,316.5C 206.379,316.607 206.712,316.107 205.5,315C 207.712,312.667 210.212,311.834 213,312.5C 214.557,309.828 215.724,306.995 216.5,304C 218.737,300.913 221.07,298.413 223.5,296.5C 222.998,295.284 222.665,294.117 222.5,293C 226.383,291.909 230.383,291.076 234.5,290.5C 235.76,288.647 235.76,286.814 234.5,285C 236.181,283.055 236.848,281.055 236.5,279C 237.167,277.333 237.833,275.667 238.5,274C 236.33,273.994 234.164,273.16 232,271.5C 229.812,271.354 228.479,272.354 228,274.5C 226.475,274.112 224.808,274.112 223,274.5C 220.754,272.237 218.087,270.904 215,270.5C 210.78,271.695 206.613,273.028 202.5,274.5C 202.47,273.503 202.97,272.836 204,272.5C 210.035,270.232 215.868,267.565 221.5,264.5C 217.506,263.069 213.506,262.069 209.5,261.5C 214.365,260.208 219.031,260.875 223.5,263.5C 224.293,263.069 225.127,262.735 226,262.5C 229.846,264.048 233.512,265.048 237,265.5C 238.269,261.351 238.935,257.018 239,252.5C 241.848,253.433 242.014,254.933 239.5,257C 239.344,261.734 240.344,266.4 242.5,271C 241.711,277.758 241.378,284.425 241.5,291C 245.102,295.746 245.102,300.412 241.5,305C 242.551,306.385 243.884,307.385 245.5,308C 245.018,309.008 244.852,310.175 245,311.5C 244.346,310.304 243.846,310.304 243.5,311.5C 244.025,312.192 244.692,312.692 245.5,313C 244.364,314.53 243.364,315.863 242.5,317C 243.167,317.667 243.833,318.333 244.5,319C 243.289,319.787 242.289,320.454 241.5,321C 241.759,322.261 242.426,323.261 243.5,324C 242.366,325.016 242.699,325.683 244.5,326C 244.539,327.245 244.205,328.578 243.5,330C 243.905,330.945 244.572,331.612 245.5,332C 245.513,334.741 245.18,337.908 244.5,341.5C 244.944,344.722 245.61,347.555 246.5,350C 243.833,352 243.833,354 246.5,356C 245.366,357.016 245.699,357.683 247.5,358C 243.38,363.49 243.713,369.323 248.5,375.5C 247.717,379.674 248.717,383.507 251.5,387C 250.692,387.308 250.025,387.808 249.5,388.5C 250.641,389.425 250.641,390.259 249.5,391C 250.167,391.333 250.833,391.667 251.5,392C 250.146,393.957 250.479,395.957 252.5,398C 252.456,400.597 252.123,403.097 251.5,405.5C 252.128,407.258 253.128,408.758 254.5,410C 253.167,412 253.167,414 254.5,416C 251.774,419.45 252.774,421.45 257.5,422C 256.167,422.333 254.833,422.667 253.5,423C 254.833,424.333 256.167,425.667 257.5,427C 256.833,427.667 256.167,428.333 255.5,429C 255.5,431 255.5,433 255.5,435C 259.002,435.656 259.002,436.989 255.5,439C 258.273,440.888 258.606,442.888 256.5,445C 256.403,449.062 257.07,453.229 258.5,457.5C 258.291,458.086 257.957,458.586 257.5,459C 258.65,461.096 259.65,463.096 260.5,465C 259.569,467.475 260.569,469.141 263.5,470C 262.542,471.147 262.875,472.147 264.5,473C 263.253,474.494 263.253,475.994 264.5,477.5C 265.183,477.137 265.85,476.804 266.5,476.5 Z"/></g>
<g><path style="opacity:1" fill="#fefffe" d="M 224.5,268.5 C 227.595,269.119 227.929,270.119 225.5,271.5C 224.205,270.902 222.872,270.402 221.5,270C 222.737,269.768 223.737,269.268 224.5,268.5 Z"/></g>
<g><path style="opacity:1" fill="#000000" d="M 295.5,319.5 C 297.027,319.427 298.027,320.094 298.5,321.5C 296.973,321.573 295.973,320.906 295.5,319.5 Z"/></g>
<g><path style="opacity:1" fill="#000000" d="M 60.5,320.5 C 61.5983,321.601 61.765,322.934 61,324.5C 59.4894,323.436 59.3228,322.103 60.5,320.5 Z"/></g>
<g><path style="opacity:1" fill="#000000" d="M 189.5,320.5 C 190.167,320.833 190.833,321.167 191.5,321.5C 190.791,322.404 189.791,322.737 188.5,322.5C 188.833,321.833 189.167,321.167 189.5,320.5 Z"/></g>
<g><path style="opacity:1" fill="#050505" d="M 187.5,322.5 C 184.761,324.502 182.261,326.835 180,329.5C 179.667,329.167 179.333,328.833 179,328.5C 166.913,333.018 154.913,337.685 143,342.5C 142.667,342.167 142.333,341.833 142,341.5C 138.114,343.451 134.114,343.784 130,342.5C 125.134,343.028 120.301,343.695 115.5,344.5C 118.308,343.227 121.142,341.893 124,340.5C 128.563,340.554 133.396,340.721 138.5,341C 139.833,340.333 139.833,339.667 138.5,339C 140.878,338.026 140.544,337.359 137.5,337C 137.833,336 138.167,335 138.5,334C 137.833,333.667 137.167,333.333 136.5,333C 137.872,331.758 138.872,330.258 139.5,328.5C 140.167,327.167 140.833,327.167 141.5,328.5C 140.145,329.675 140.312,330.675 142,331.5C 142.423,330.044 143.256,329.544 144.5,330C 144.167,330.333 143.833,330.667 143.5,331C 144.719,332.795 145.719,332.628 146.5,330.5C 147.782,333.834 146.449,336.001 142.5,337C 142.93,337.92 143.264,338.753 143.5,339.5C 148.429,338.449 153.262,336.449 158,333.5C 158.414,333.957 158.914,334.291 159.5,334.5C 161.733,334.136 163.566,333.136 165,331.5C 165.333,331.833 165.667,332.167 166,332.5C 170.485,331.174 174.652,329.174 178.5,326.5C 180.529,327.629 180.863,327.129 179.5,325C 180.76,323.887 181.927,323.72 183,324.5C 184.137,323.636 185.47,322.636 187,321.5C 187.399,321.728 187.565,322.062 187.5,322.5 Z"/></g>
<g><path style="opacity:1" fill="#000000" d="M 298.5,321.5 C 306.18,325.67 313.513,330.337 320.5,335.5C 314.221,332.024 307.888,328.524 301.5,325C 300.29,323.961 299.29,322.794 298.5,321.5 Z"/></g>
<g><path style="opacity:1" fill="#000000" d="M 50.5,324.5 C 49.3285,325.345 47.9952,326.011 46.5,326.5C 47.1834,324.824 48.5168,324.157 50.5,324.5 Z"/></g>
<g><path style="opacity:1" fill="#000000" d="M 42.5,328.5 C 41.0655,330.378 39.3989,331.045 37.5,330.5C 38.5521,328.744 40.2188,328.077 42.5,328.5 Z"/></g>
<g><path style="opacity:1" fill="#000000" d="M 146.5,330.5 C 146.783,329.711 147.283,329.044 148,328.5C 148.528,329.816 148.028,330.483 146.5,330.5 Z"/></g>
<g><path style="opacity:1" fill="#000000" d="M 36.5,331.5 C 34.752,334.778 32.752,335.445 30.5,333.5C 32.4744,333.707 34.4744,333.04 36.5,331.5 Z"/></g>
<g><path style="opacity:1" fill="#000000" d="M 110.5,332.5 C 111.773,333.077 111.773,333.743 110.5,334.5C 109.537,334.03 109.537,333.363 110.5,332.5 Z"/></g>
<g><path style="opacity:1" fill="#000000" d="M 28.5,334.5 C 27.1667,335.5 27.1667,336.5 28.5,337.5C 24.69,336.754 24.69,335.754 28.5,334.5 Z"/></g>
<g><path style="opacity:1" fill="#000000" d="M 258.5,334.5 C 260.262,335.262 261.262,336.596 261.5,338.5C 259.738,337.738 258.738,336.404 258.5,334.5 Z"/></g>
<g><path style="opacity:1" fill="#000000" d="M 320.5,335.5 C 322.674,335.75 324.341,336.75 325.5,338.5C 323.326,338.25 321.659,337.25 320.5,335.5 Z"/></g>
<g><path style="opacity:1" fill="#000000" d="M 358.5,335.5 C 359.598,336.601 359.765,337.934 359,339.5C 357.666,338.122 357.499,336.789 358.5,335.5 Z"/></g>
<g><path style="opacity:1" fill="#000000" d="M 28.5,337.5 C 31.8772,339.175 35.2105,340.842 38.5,342.5C 37.8826,342.611 37.3826,342.944 37,343.5C 33.6821,341.989 30.8487,339.989 28.5,337.5 Z"/></g>
<g><path style="opacity:1" fill="#000000" d="M 261.5,338.5 C 263.526,340.018 265.693,341.352 268,342.5C 275.811,340.132 279.311,343.132 278.5,351.5C 278.098,355.454 276.931,359.12 275,362.5C 274.248,365.894 274.415,369.227 275.5,372.5C 274.128,374.691 273.794,376.858 274.5,379C 274.164,380.03 273.497,380.53 272.5,380.5C 272.264,378.951 272.264,377.451 272.5,376C 271.833,375.667 271.167,375.333 270.5,375C 272.521,372.957 272.854,370.957 271.5,369C 273.592,368.047 273.925,366.714 272.5,365C 273.5,362 274.5,359 275.5,356C 275.386,353.048 275.386,350.048 275.5,347C 275.188,344.719 273.855,343.552 271.5,343.5C 266.655,345.774 263.322,344.107 261.5,338.5 Z"/></g>
<g><path style="opacity:1" fill="#000000" d="M 325.5,338.5 C 327.027,338.427 328.027,339.094 328.5,340.5C 326.973,340.573 325.973,339.906 325.5,338.5 Z"/></g>
<g><path style="opacity:1" fill="#000000" d="M 328.5,340.5 C 330.674,340.75 332.341,341.75 333.5,343.5C 331.326,343.25 329.659,342.25 328.5,340.5 Z"/></g>
<g><path style="opacity:1" fill="#000000" d="M 356.5,341.5 C 356.56,340.957 356.893,340.624 357.5,340.5C 358.262,341.628 358.929,342.795 359.5,344C 358.833,344.667 358.167,344.667 357.5,344C 357.116,343.049 356.783,342.216 356.5,341.5 Z"/></g>
<g><path style="opacity:1" fill="#000000" d="M 61.5,349.5 C 58.2551,349.846 54.9218,349.346 51.5,348C 47.2761,345.706 42.9428,343.873 38.5,342.5C 39.1174,342.389 39.6174,342.056 40,341.5C 41.7337,342.249 43.567,342.749 45.5,343C 47.1401,345.339 49.1401,346.172 51.5,345.5C 53.1303,346.898 54.9637,347.898 57,348.5C 59.0968,345.742 60.5968,346.075 61.5,349.5 Z"/></g>
<g><path style="opacity:1" fill="#000000" d="M 61.5,341.5 C 62.7733,342.077 62.7733,342.743 61.5,343.5C 60.537,343.03 60.537,342.363 61.5,341.5 Z"/></g>
<g><path style="opacity:1" fill="#000000" d="M 112.5,343.5 C 113.002,341.915 114.002,341.415 115.5,342C 114.756,343.039 113.756,343.539 112.5,343.5 Z"/></g>
<g><path style="opacity:1" fill="#000000" d="M 253.5,342.5 C 256.001,342.511 256.168,343.178 254,344.5C 253.536,343.906 253.369,343.239 253.5,342.5 Z"/></g>
<g><path style="opacity:1" fill="#000000" d="M 112.5,343.5 C 113.209,344.404 114.209,344.737 115.5,344.5C 110.706,346.203 105.706,347.536 100.5,348.5C 104.413,346.842 108.413,345.176 112.5,343.5 Z"/></g>
<g><path style="opacity:1" fill="#000000" d="M 333.5,343.5 C 335.674,343.75 337.341,344.75 338.5,346.5C 336.326,346.25 334.659,345.25 333.5,343.5 Z"/></g>
<g><path style="opacity:1" fill="#000000" d="M 338.5,346.5 C 340.027,346.427 341.027,347.094 341.5,348.5C 339.973,348.573 338.973,347.906 338.5,346.5 Z"/></g>
<g><path style="opacity:1" fill="#000000" d="M 100.5,348.5 C 98.4006,349.612 96.0673,350.279 93.5,350.5C 94.8409,348.88 96.6742,347.88 99,347.5C 99.3826,348.056 99.8826,348.389 100.5,348.5 Z"/></g>
<g><path style="opacity:1" fill="#000000" d="M 112.5,348.5 C 113.5,348.5 114.5,348.5 115.5,348.5C 115.5,349.833 115.5,351.167 115.5,352.5C 112.046,352.733 111.046,351.4 112.5,348.5 Z"/></g>
<g><path style="opacity:1" fill="#000000" d="M 341.5,348.5 C 343.674,348.75 345.341,349.75 346.5,351.5C 344.326,351.25 342.659,350.25 341.5,348.5 Z"/></g>
<g><path style="opacity:1" fill="#000000" d="M 61.5,349.5 C 66.298,351.192 70.9646,352.525 75.5,353.5C 70.3106,354.442 65.6439,353.109 61.5,349.5 Z"/></g>
<g><path style="opacity:1" fill="#000000" d="M 93.5,350.5 C 91.0466,351.217 88.7133,352.384 86.5,354C 83.9615,354.796 81.6282,354.629 79.5,353.5C 81.351,353.351 83.1843,353.351 85,353.5C 87.3046,351.07 90.1379,350.07 93.5,350.5 Z"/></g>
<g><path style="opacity:1" fill="#000000" d="M 79.5,353.5 C 78.1667,353.5 76.8333,353.5 75.5,353.5C 76.281,351.678 77.4477,351.011 79,351.5C 79.4643,352.094 79.631,352.761 79.5,353.5 Z"/></g>
<g><path style="opacity:1" fill="#000000" d="M 346.5,351.5 C 348.027,351.427 349.027,352.094 349.5,353.5C 347.973,353.573 346.973,352.906 346.5,351.5 Z"/></g>
<g><path style="opacity:1" fill="#000000" d="M 349.5,353.5 C 351.027,353.427 352.027,354.094 352.5,355.5C 350.973,355.573 349.973,354.906 349.5,353.5 Z"/></g>
<g><path style="opacity:1" fill="#000000" d="M 352.5,355.5 C 354.179,355.285 355.179,355.952 355.5,357.5C 354.29,357.068 353.29,356.401 352.5,355.5 Z"/></g>
<g><path style="opacity:1" fill="#000000" d="M 357.5,358.5 C 356.508,358.672 355.842,358.338 355.5,357.5C 356.925,355.969 357.591,356.302 357.5,358.5 Z"/></g>
<g><path style="opacity:1" fill="#000000" d="M 359.5,359.5 C 360.833,359.5 361.5,360.167 361.5,361.5C 360.5,361.167 359.833,360.5 359.5,359.5 Z"/></g>
<g><path style="opacity:1" fill="#000000" d="M 364.5,362.5 C 363.508,362.672 362.842,362.338 362.5,361.5C 363.327,360.561 363.994,360.895 364.5,362.5 Z"/></g>
<g><path style="opacity:1" fill="#000000" d="M 379.5,373.5 C 379.052,375.465 378.052,375.798 376.5,374.5C 377.325,373.614 378.325,373.281 379.5,373.5 Z"/></g>
<g><path style="opacity:1" fill="#000000" d="M 272.5,381.5 C 273.657,389.656 273.823,397.99 273,406.5C 270.819,415.833 269.319,424.833 268.5,433.5C 266.605,431.316 266.605,428.816 268.5,426C 266.487,424.209 266.487,422.875 268.5,422C 268.04,416.896 268.04,411.896 268.5,407C 269.167,405.667 270.167,404.667 271.5,404C 270.903,402.372 271.237,400.705 272.5,399C 272.142,392.821 272.142,386.988 272.5,381.5 Z"/></g>
<g><path style="opacity:1" fill="#000000" d="M 268.5,434.5 C 268.794,438.1 269.46,441.6 270.5,445C 269.68,449.466 269.68,453.8 270.5,458C 269.588,460.317 268.588,462.484 267.5,464.5C 266.556,462.251 266.223,459.751 266.5,457C 267.167,456.667 267.833,456.333 268.5,456C 267.99,451.744 267.99,447.744 268.5,444C 267.833,443 267.167,442 266.5,441C 267.117,438.723 267.784,436.556 268.5,434.5 Z"/></g>
<g><path style="opacity:1" fill="#000000" d="M 258.5,446.5 C 259.289,446.783 259.956,447.283 260.5,448C 259.184,448.528 258.517,448.028 258.5,446.5 Z"/></g>
<g><path style="opacity:1" fill="#000000" d="M 215.5,448.5 C 217.465,448.948 217.798,449.948 216.5,451.5C 215.614,450.675 215.281,449.675 215.5,448.5 Z"/></g>
<g><path style="opacity:1" fill="#000000" d="M 267.5,464.5 C 267.058,468.154 266.724,471.821 266.5,475.5C 265.625,471.988 265.292,468.488 265.5,465C 266.094,464.536 266.761,464.369 267.5,464.5 Z"/></g>
</svg>
